<svg width="150" height="54" viewBox="0 0 150 54" fill="none" xmlns="http://www.w3.org/2000/svg">
<path d="M27.3449 52.6699V49.0972C24.528 51.8455 20.8179 53.4944 16.6268 53.4944C7.21412 53.4944 0 45.8681 0 36.2492C0 26.6304 7.21412 18.8666 16.6268 18.8666C20.7492 18.8666 24.3219 20.3095 27.0701 22.989V0H34.0781V52.668H27.3449V52.6699ZM27.3449 36.1805C27.3449 30.1344 23.0852 25.5998 17.3139 25.5998C11.5426 25.5998 7.28282 30.2031 7.28282 36.2492C7.28282 42.2953 11.5426 46.7612 17.3139 46.7612C23.0852 46.7612 27.3449 42.2266 27.3449 36.1805Z" fill="#0F0633"/>
<path d="M38.6792 36.2493C38.6792 26.6305 46.1681 18.8667 55.9931 18.8667C65.818 18.8667 73.307 26.5618 73.307 36.1806C73.307 45.7994 65.6806 53.4945 55.9931 53.4945C46.3056 53.4945 38.6792 45.8681 38.6792 36.2493ZM66.0261 36.1806C66.0261 30.1345 61.7663 25.5999 55.995 25.5999C50.2238 25.5999 45.964 30.2032 45.964 36.2493C45.964 42.2954 50.2238 46.7613 55.995 46.7613C61.7663 46.7613 66.0261 42.2267 66.0261 36.1806Z" fill="#0F0633"/>
<path d="M105.807 52.6702H98.7987V26.4246H84.9201V52.6702H77.9121V19.6895H105.807V52.6683V52.6702Z" fill="#0F0633"/>
<path d="M142.358 38.7914H117.762C118.517 43.4634 122.434 46.7613 127.655 46.7613C131.434 46.7613 134.526 44.8375 136.244 41.8145L141.877 45.3185C138.854 50.2653 133.633 53.4945 127.381 53.4945C117.83 53.4945 110.41 45.7994 110.41 36.1806C110.41 26.5618 117.281 18.8667 126.487 18.8667C135.694 18.8667 142.565 26.3556 142.565 36.1806C142.565 37.0738 142.496 37.9669 142.358 38.7914ZM117.691 33.1575H135.28C134.73 28.5542 131.432 25.3251 126.485 25.3251C121.813 25.3251 118.241 28.5542 117.691 33.1575Z" fill="#0F0633"/>
<path d="M139.041 14.7348H142.93V15.7104H141.501V20.7397H140.47V15.7104H139.041V14.7348ZM142.932 20.7397L144.471 14.46L146.436 18.8159L148.373 14.46L149.926 20.7397H148.882L148.071 17.3731L146.436 21.0695L144.801 17.3456L143.976 20.7397H142.932Z" fill="#0F0633"/>
</svg>
