<svg width="151" height="54" viewBox="0 0 151 54" fill="none" xmlns="http://www.w3.org/2000/svg">
<path d="M27.6221 52.9352V49.3607C24.8038 52.1103 21.0918 53.76 16.8987 53.76C7.48135 53.76 0.263672 46.1299 0.263672 36.5064C0.263672 26.8828 7.48135 19.1152 16.8987 19.1152C21.0231 19.1152 24.5975 20.5587 27.3471 23.2396V0.239258H34.3586V52.9332H27.6221V52.9352ZM27.6221 36.4376C27.6221 30.3885 23.3602 25.8517 17.5861 25.8517C11.812 25.8517 7.55009 30.4573 7.55009 36.5064C7.55009 42.5555 11.812 47.0235 17.5861 47.0235C23.3602 47.0235 27.6221 42.4867 27.6221 36.4376Z" fill="#3415AF"/>
<path d="M38.9624 36.5069C38.9624 26.8833 46.455 19.1157 56.2848 19.1157C66.1146 19.1157 73.6072 26.8146 73.6072 36.4381C73.6072 46.0617 65.9771 53.7606 56.2848 53.7606C46.5925 53.7606 38.9624 46.1305 38.9624 36.5069ZM66.3228 36.4381C66.3228 30.389 62.0609 25.8522 56.2868 25.8522C50.5126 25.8522 46.2508 30.4578 46.2508 36.5069C46.2508 42.556 50.5126 47.0241 56.2868 47.0241C62.0609 47.0241 66.3228 42.4872 66.3228 36.4381Z" fill="#3415AF"/>
<path d="M106.122 52.9355H99.1108V26.6769H85.2253V52.9355H78.2139V19.9385H106.122V52.9336V52.9355Z" fill="#3415AF"/>
<path d="M142.693 39.0503H118.084C118.84 43.7246 122.758 47.0241 127.982 47.0241C131.763 47.0241 134.856 45.0994 136.575 42.0748L142.211 45.5805C139.187 50.5298 133.963 53.7606 127.707 53.7606C118.152 53.7606 110.729 46.0617 110.729 36.4381C110.729 26.8146 117.602 19.1157 126.814 19.1157C136.025 19.1157 142.899 26.6084 142.899 36.4381C142.899 37.3318 142.83 38.2254 142.693 39.0503ZM118.013 33.4136H135.61C135.06 28.808 131.761 25.5773 126.812 25.5773C122.137 25.5773 118.563 28.808 118.013 33.4136Z" fill="#3415AF"/>
<path d="M139.374 14.9815H143.265V15.9576H141.835V20.9894H140.804V15.9576H139.374V14.9815ZM143.267 20.9894L144.806 14.7065L146.772 19.0646L148.711 14.7065L150.264 20.9894H149.22L148.408 17.6211L146.772 21.3193L145.136 17.5936L144.312 20.9894H143.267Z" fill="#3415AF"/>
</svg>
