<svg width="485" height="156" viewBox="0 0 485 156" fill="none" xmlns="http://www.w3.org/2000/svg">
<path d="M53.3182 44.3431C68.7584 44.3431 83.5902 50.8843 89.5229 61.6088H90.3596C89.9793 59.4031 89.7511 56.9691 89.7511 51.2646V0H111.504V152.501H91.3483V145.808C91.3483 141.168 91.5765 137.897 91.7286 135.235H91.1202C84.1987 148.47 69.5951 155.771 52.4816 155.771C21.1447 155.771 0 132.573 0 100.095C0 67.6175 21.7532 44.4192 53.2422 44.4192L53.3182 44.3431ZM90.5117 99.8671C90.5117 78.7224 76.2884 63.6624 56.3606 63.6624C36.4328 63.6624 22.2096 78.7224 22.2096 99.8671C22.2096 121.012 36.8131 136.072 56.3606 136.072C75.9081 136.072 90.5117 120.86 90.5117 99.8671Z" fill="#0B0425"/>
<path d="M127.795 100.096C127.795 67.9986 151.374 44.4199 183.471 44.4199C215.568 44.4199 239.375 67.9986 239.375 100.096C239.375 132.193 215.568 155.772 183.471 155.772C151.374 155.772 127.795 131.965 127.795 100.096ZM217.09 99.8678C217.09 78.7231 203.247 63.6632 183.547 63.6632C163.848 63.6632 150.005 78.7231 150.005 99.8678C150.005 121.013 164 136.073 183.547 136.073C203.095 136.073 217.09 120.86 217.09 99.8678Z" fill="#0B0425"/>
<path d="M343.063 47.2852V152.172H321.082V66.3763H277.575V152.172H255.594V47.2852H343.063Z" fill="#0B0425"/>
<path d="M415.01 155.772C382.456 155.772 359.105 131.965 359.105 100.096C359.105 68.2267 382.456 44.4199 414.629 44.4199C446.803 44.4199 466.274 67.9986 466.274 100.096C466.274 100.096 466.046 106.029 465.666 108.006H382.076C384.89 125.272 397.288 136.073 415.238 136.073C433.188 136.073 437.6 131.433 445.13 121.849L457.908 135.084C447.563 148.927 432.884 155.848 415.01 155.848V155.772ZM382.076 92.1857H444.521C442.924 75.5286 431.135 63.7392 414.249 63.7392C397.364 63.7392 384.966 74.9201 382.152 92.1857H382.076Z" fill="#0B0425"/>
<path d="M455.019 34.7392C455.893 33.1377 457.058 31.9729 458.368 31.0994C459.824 30.2258 461.425 29.7891 463.172 29.7891C464.919 29.7891 466.084 30.0803 467.249 30.6626C468.414 31.245 469.287 32.1185 470.015 32.9921V30.0802H474.237V50.0262H470.015V47.1144C469.287 47.9879 468.414 48.8615 467.103 49.4438C465.939 50.0262 464.483 50.3174 463.027 50.3174C461.571 50.3174 459.678 49.8806 458.368 49.007C456.912 48.1335 455.747 46.8232 455.019 45.3673C454.146 43.7658 453.709 42.0187 453.709 39.9804C453.709 37.9421 454.146 36.1951 455.019 34.5936V34.7392ZM469.287 36.6318C468.705 35.6127 467.977 34.8847 467.103 34.3024C466.23 33.72 465.211 33.5744 464.192 33.5744C463.172 33.5744 462.153 33.8656 461.28 34.3024C460.406 34.8847 459.678 35.6127 459.096 36.6318C458.514 37.651 458.222 38.8157 458.222 40.2716C458.222 41.7275 458.514 42.8922 459.096 43.9114C459.678 44.9305 460.406 45.8041 461.28 46.2408C462.153 46.8232 463.172 47.1144 464.192 47.1144C465.211 47.1144 466.23 46.8232 467.103 46.3864C467.977 45.9497 468.705 45.0761 469.287 44.057C469.87 43.0378 470.161 41.8731 470.161 40.4172C470.161 38.9613 469.87 37.7966 469.287 36.7774V36.6318Z" fill="#0B0425"/>
<path d="M479.962 26.8785C479.526 26.4418 479.234 25.7138 479.234 24.9859C479.234 24.2579 479.526 23.6756 479.962 23.0932C480.399 22.6564 481.127 22.3652 481.855 22.3652C482.583 22.3652 483.165 22.6564 483.748 23.0932C484.184 23.53 484.476 24.2579 484.476 24.9859C484.476 25.7138 484.184 26.2962 483.748 26.8785C483.311 27.3153 482.583 27.6065 481.855 27.6065C481.127 27.6065 480.545 27.3153 479.962 26.8785ZM483.893 30.2271V50.1731H479.817V30.2271H483.893Z" fill="#0B0425"/>
</svg>
